<mxfile host="app.diagrams.net" modified="2023-01-06T03:34:18.412Z" agent="5.0 (Macintosh; Intel Mac OS X 10_15_7) AppleWebKit/537.36 (KHTML, like Gecko) Chrome/108.0.0.0 Safari/537.36" version="20.6.0" etag="4wnfMYqirogy9GWg6zPo" type="github">
  <diagram id="UnHokklRUFfZUzafQW61" name="Page-1">
    <mxGraphModel dx="1406" dy="794" grid="1" gridSize="10" guides="1" tooltips="1" connect="1" arrows="1" fold="1" page="1" pageScale="1" pageWidth="827" pageHeight="1169" math="0" shadow="0">
      <root>
        <mxCell id="0" />
        <mxCell id="1" parent="0" />
        <mxCell id="Umw-cq8zP6dx0y1mp16a-2" value="" style="strokeWidth=1;html=1;shadow=0;dashed=0;shape=mxgraph.android.textfield;align=center;strokeColor=#33b5e5;pointerEvents=1" vertex="1" parent="1">
          <mxGeometry x="50" y="490" width="174" height="30" as="geometry" />
        </mxCell>
        <mxCell id="Umw-cq8zP6dx0y1mp16a-3" value="" style="strokeWidth=1;html=1;shadow=0;dashed=0;shape=mxgraph.android.textfield;align=center;strokeColor=#33b5e5;pointerEvents=1" vertex="1" parent="1">
          <mxGeometry x="446" y="490" width="174" height="30" as="geometry" />
        </mxCell>
        <mxCell id="Umw-cq8zP6dx0y1mp16a-4" value="" style="strokeWidth=1;html=1;shadow=0;dashed=0;shape=mxgraph.android.textfield;align=center;strokeColor=#33b5e5;pointerEvents=1" vertex="1" parent="1">
          <mxGeometry x="248" y="490" width="174" height="30" as="geometry" />
        </mxCell>
        <mxCell id="Umw-cq8zP6dx0y1mp16a-5" value="" style="strokeWidth=1;html=1;shadow=0;dashed=0;shape=mxgraph.android.textfield;align=center;strokeColor=#999999;pointerEvents=1" vertex="1" parent="1">
          <mxGeometry x="224" y="490" width="24" height="30" as="geometry" />
        </mxCell>
        <mxCell id="Umw-cq8zP6dx0y1mp16a-7" value="" style="strokeWidth=1;html=1;shadow=0;dashed=0;shape=mxgraph.android.textfield;align=center;strokeColor=#999999;pointerEvents=1" vertex="1" parent="1">
          <mxGeometry x="422" y="490" width="24" height="30" as="geometry" />
        </mxCell>
        <mxCell id="Umw-cq8zP6dx0y1mp16a-8" value="&lt;font style=&quot;font-size: 5px;&quot;&gt;13:48:47&lt;/font&gt;" style="text;html=1;align=center;verticalAlign=middle;resizable=0;points=[];autosize=1;strokeColor=none;fillColor=none;imageWidth=20;" vertex="1" parent="1">
          <mxGeometry x="10" y="470" width="70" height="30" as="geometry" />
        </mxCell>
        <mxCell id="Umw-cq8zP6dx0y1mp16a-9" value="&lt;font style=&quot;font-size: 5px;&quot;&gt;14:17:21&lt;/font&gt;" style="text;html=1;align=center;verticalAlign=middle;resizable=0;points=[];autosize=1;strokeColor=none;fillColor=none;imageWidth=20;" vertex="1" parent="1">
          <mxGeometry x="160" y="470" width="70" height="30" as="geometry" />
        </mxCell>
        <mxCell id="Umw-cq8zP6dx0y1mp16a-10" value="&lt;font style=&quot;font-size: 5px;&quot;&gt;14:17:43&lt;/font&gt;" style="text;html=1;align=center;verticalAlign=middle;resizable=0;points=[];autosize=1;strokeColor=none;fillColor=none;imageWidth=20;" vertex="1" parent="1">
          <mxGeometry x="240" y="470" width="70" height="30" as="geometry" />
        </mxCell>
        <mxCell id="Umw-cq8zP6dx0y1mp16a-11" value="&lt;font style=&quot;font-size: 5px;&quot;&gt;14:47:21&lt;/font&gt;" style="text;html=1;align=center;verticalAlign=middle;resizable=0;points=[];autosize=1;strokeColor=none;fillColor=none;imageWidth=20;" vertex="1" parent="1">
          <mxGeometry x="360" y="470" width="70" height="30" as="geometry" />
        </mxCell>
        <mxCell id="Umw-cq8zP6dx0y1mp16a-12" value="&lt;font style=&quot;font-size: 5px;&quot;&gt;14:48:14&lt;/font&gt;" style="text;html=1;align=center;verticalAlign=middle;resizable=0;points=[];autosize=1;strokeColor=none;fillColor=none;imageWidth=20;" vertex="1" parent="1">
          <mxGeometry x="446" y="470" width="70" height="30" as="geometry" />
        </mxCell>
        <mxCell id="Umw-cq8zP6dx0y1mp16a-13" value="&lt;font style=&quot;font-size: 5px;&quot;&gt;15:17:21&lt;/font&gt;" style="text;html=1;align=center;verticalAlign=middle;resizable=0;points=[];autosize=1;strokeColor=none;fillColor=none;imageWidth=20;" vertex="1" parent="1">
          <mxGeometry x="590" y="470" width="70" height="30" as="geometry" />
        </mxCell>
        <mxCell id="Umw-cq8zP6dx0y1mp16a-14" value="" style="shape=curlyBracket;whiteSpace=wrap;html=1;rounded=1;labelPosition=left;verticalLabelPosition=middle;align=right;verticalAlign=middle;fontSize=5;direction=north;" vertex="1" parent="1">
          <mxGeometry x="52" y="530" width="170" height="20" as="geometry" />
        </mxCell>
        <mxCell id="Umw-cq8zP6dx0y1mp16a-15" value="" style="shape=curlyBracket;whiteSpace=wrap;html=1;rounded=1;labelPosition=left;verticalLabelPosition=middle;align=right;verticalAlign=middle;fontSize=5;direction=north;" vertex="1" parent="1">
          <mxGeometry x="251" y="530" width="169" height="20" as="geometry" />
        </mxCell>
        <mxCell id="Umw-cq8zP6dx0y1mp16a-16" value="" style="shape=curlyBracket;whiteSpace=wrap;html=1;rounded=1;labelPosition=left;verticalLabelPosition=middle;align=right;verticalAlign=middle;fontSize=5;direction=north;" vertex="1" parent="1">
          <mxGeometry x="446" y="530" width="174" height="20" as="geometry" />
        </mxCell>
        <mxCell id="Umw-cq8zP6dx0y1mp16a-17" value="" style="shape=curlyBracket;whiteSpace=wrap;html=1;rounded=1;labelPosition=left;verticalLabelPosition=middle;align=right;verticalAlign=middle;fontSize=5;direction=north;size=0.5;" vertex="1" parent="1">
          <mxGeometry x="221" y="550" width="30" height="15" as="geometry" />
        </mxCell>
        <mxCell id="Umw-cq8zP6dx0y1mp16a-18" value="" style="shape=curlyBracket;whiteSpace=wrap;html=1;rounded=1;labelPosition=left;verticalLabelPosition=middle;align=right;verticalAlign=middle;fontSize=5;direction=north;" vertex="1" parent="1">
          <mxGeometry x="420" y="545" width="30" height="20" as="geometry" />
        </mxCell>
        <mxCell id="Umw-cq8zP6dx0y1mp16a-22" value="A" style="text;html=1;align=center;verticalAlign=middle;resizable=0;points=[];autosize=1;strokeColor=none;fillColor=none;fontSize=5;" vertex="1" parent="1">
          <mxGeometry x="115" y="545" width="30" height="30" as="geometry" />
        </mxCell>
        <mxCell id="Umw-cq8zP6dx0y1mp16a-23" value="B" style="text;html=1;align=center;verticalAlign=middle;resizable=0;points=[];autosize=1;strokeColor=none;fillColor=none;fontSize=5;fontColor=#000000;" vertex="1" parent="1">
          <mxGeometry x="320" y="550" width="30" height="30" as="geometry" />
        </mxCell>
        <mxCell id="Umw-cq8zP6dx0y1mp16a-24" value="C" style="text;html=1;align=center;verticalAlign=middle;resizable=0;points=[];autosize=1;strokeColor=none;fillColor=none;fontSize=5;fontColor=#000000;" vertex="1" parent="1">
          <mxGeometry x="518" y="550" width="30" height="30" as="geometry" />
        </mxCell>
        <mxCell id="Umw-cq8zP6dx0y1mp16a-25" value="D" style="text;html=1;align=center;verticalAlign=middle;resizable=0;points=[];autosize=1;strokeColor=none;fillColor=none;fontSize=5;fontColor=#000000;" vertex="1" parent="1">
          <mxGeometry x="218" y="555" width="30" height="30" as="geometry" />
        </mxCell>
        <mxCell id="Umw-cq8zP6dx0y1mp16a-26" value="E" style="text;html=1;align=center;verticalAlign=middle;resizable=0;points=[];autosize=1;strokeColor=none;fillColor=none;fontSize=5;fontColor=#000000;" vertex="1" parent="1">
          <mxGeometry x="419" y="555" width="30" height="30" as="geometry" />
        </mxCell>
      </root>
    </mxGraphModel>
  </diagram>
</mxfile>
